<?xml version="1.0" encoding="utf-8"?>
<!-- Generator: Adobe Illustrator 15.0.0, SVG Export Plug-In . SVG Version: 6.00 Build 0)  -->
<!DOCTYPE svg PUBLIC "-//W3C//DTD SVG 1.1//EN" "http://www.w3.org/Graphics/SVG/1.1/DTD/svg11.dtd">
<svg version="1.1" id="Слой_1" xmlns="http://www.w3.org/2000/svg" xmlns:xlink="http://www.w3.org/1999/xlink" x="0px" y="0px"
	 width="240px" height="206.591px" viewBox="347 341 240 206.591" enable-background="new 347 341 240 206.591"
	 xml:space="preserve">
<rect x="356.763" y="378.515" fill="#393D46" width="106.896" height="100.986"/>
<path fill="#01567B" d="M359.333,341h102.016c4.256,0,7.709,3.449,7.709,7.71v22.096c0,4.26-3.454,7.709-7.709,7.709H359.333
	c-4.255,0-7.709-3.449-7.709-7.709V348.71C351.623,344.449,355.077,341,359.333,341z"/>
<path fill="#01567B" d="M359.333,384.167h102.016c4.256,0,7.709,3.454,7.709,7.71v22.099c0,4.259-3.454,7.71-7.709,7.71H359.333
	c-4.255,0-7.709-3.451-7.709-7.71v-22.099C351.623,387.621,355.077,384.167,359.333,384.167z"/>
<path fill="#01567B" d="M359.333,427.338h102.016c4.256,0,7.709,3.451,7.709,7.71v22.099c0,4.256-3.454,7.706-7.709,7.706H359.333
	c-4.255,0-7.709-3.45-7.709-7.706v-22.099C351.623,430.788,355.077,427.338,359.333,427.338z"/>
<path fill="#E28C15" d="M383.748,357.187h40.341c1.701,0,3.082,1.382,3.082,3.082l0,0c0,1.706-1.381,3.087-3.082,3.087h-40.341
	c-1.705,0-3.087-1.381-3.087-3.087l0,0C380.66,358.569,382.042,357.187,383.748,357.187z"/>
<path fill="#6C9BB7" d="M439.764,357.187c1.701,0,3.082,1.382,3.082,3.082c0,1.706-1.381,3.087-3.082,3.087
	c-1.705,0-3.087-1.381-3.087-3.087C436.677,358.569,438.059,357.187,439.764,357.187z"/>
<path fill="#31ABA0" d="M448.242,357.187c1.701,0,3.082,1.382,3.082,3.082c0,1.706-1.381,3.087-3.082,3.087
	c-1.705,0-3.082-1.381-3.082-3.087C445.161,358.569,446.537,357.187,448.242,357.187z"/>
<path fill="#F2433E" d="M456.72,357.187c1.705,0,3.086,1.382,3.086,3.082c0,1.706-1.381,3.087-3.086,3.087
	c-1.701,0-3.082-1.381-3.082-3.087C453.638,358.569,455.02,357.187,456.72,357.187z"/>
<path fill="#E28C15" d="M383.748,400.358h40.341c1.701,0,3.082,1.378,3.082,3.082l0,0c0,1.703-1.381,3.085-3.082,3.085h-40.341
	c-1.705,0-3.087-1.382-3.087-3.085l0,0C380.66,401.737,382.042,400.358,383.748,400.358z"/>
<path fill="#E28C15" d="M383.748,443.525h40.341c1.701,0,3.082,1.383,3.082,3.085l0,0c0,1.704-1.381,3.085-3.082,3.085h-40.341
	c-1.705,0-3.087-1.382-3.087-3.085l0,0C380.66,444.908,382.042,443.525,383.748,443.525z"/>
<path fill="#6C9BB7" d="M439.764,400.358c1.701,0,3.082,1.378,3.082,3.082c0,1.703-1.381,3.085-3.082,3.085
	c-1.705,0-3.087-1.382-3.087-3.085C436.677,401.737,438.059,400.358,439.764,400.358z"/>
<path fill="#6C9BB7" d="M439.764,443.525c1.701,0,3.082,1.383,3.082,3.085c0,1.704-1.381,3.085-3.082,3.085
	c-1.705,0-3.087-1.382-3.087-3.085C436.677,444.908,438.059,443.525,439.764,443.525z"/>
<path fill="#31ABA0" d="M448.242,400.358c1.701,0,3.082,1.378,3.082,3.082c0,1.703-1.381,3.085-3.082,3.085
	c-1.705,0-3.082-1.382-3.082-3.085C445.161,401.737,446.537,400.358,448.242,400.358z"/>
<path fill="#31ABA0" d="M448.242,443.525c1.701,0,3.082,1.383,3.082,3.085c0,1.704-1.381,3.085-3.082,3.085
	c-1.705,0-3.082-1.382-3.082-3.085C445.161,444.908,446.537,443.525,448.242,443.525z"/>
<path fill="#F2433E" d="M456.72,400.358c1.705,0,3.086,1.378,3.086,3.082c0,1.703-1.381,3.085-3.086,3.085
	c-1.701,0-3.082-1.382-3.082-3.085C453.638,401.737,455.02,400.358,456.72,400.358z"/>
<path fill="#F2433E" d="M456.72,443.525c1.705,0,3.086,1.383,3.086,3.085c0,1.704-1.381,3.085-3.086,3.085
	c-1.701,0-3.082-1.382-3.082-3.085C453.638,444.908,455.02,443.525,456.72,443.525z"/>
<path fill="#DDF1FC" d="M403.876,439.621c12.825,0,23.215,10.391,23.215,23.216c0,12.826-10.391,23.216-23.215,23.216
	c-12.82,0-23.216-10.391-23.216-23.216C380.66,450.012,391.056,439.621,403.876,439.621z"/>
<path fill="#DDF1FC" d="M430.094,460.49c17.502,0,31.697,14.186,31.697,31.693s-14.194,31.69-31.697,31.69
	s-31.692-14.184-31.692-31.69S412.591,460.49,430.094,460.49z"/>
<path fill="#DDF1FC" d="M474.308,420.055c34.866,0,63.134,28.264,63.134,63.131c0,34.857-28.268,63.124-63.134,63.124
	c-34.862,0-63.124-28.267-63.124-63.124C411.184,448.32,439.446,420.055,474.308,420.055z"/>
<path fill="#DDF1FC" d="M553.615,442.49c18.434,0,33.385,14.95,33.385,33.384c0,18.444-14.951,33.396-33.385,33.396
	c-18.444,0-33.396-14.951-33.396-33.396C520.22,457.44,535.171,442.49,553.615,442.49z"/>
<circle fill="#7AC5EC" cx="375.008" cy="493.635" r="28.011"/>
<path fill="#7AC5EC" d="M418.693,465.624c21.143,0,38.283,17.145,38.283,38.287c0,21.145-17.14,38.282-38.283,38.282
	c-21.148,0-38.288-17.138-38.288-38.282C380.405,482.768,397.544,465.624,418.693,465.624z"/>
<path fill="#7AC5EC" d="M477.024,426.31c33.492,0,60.642,27.152,60.642,60.646c0,33.491-27.149,60.635-60.642,60.635
	c-33.494,0-60.646-27.144-60.646-60.635C416.379,453.462,443.531,426.31,477.024,426.31z"/>
<path fill="#7AC5EC" d="M545.891,459.201c19.016,0,34.425,15.416,34.425,34.431s-15.409,34.433-34.425,34.433
	c-19.024,0-34.434-15.418-34.434-34.433S526.866,459.201,545.891,459.201z"/>
<path fill="#B0E0F7" d="M380.148,461.771c12.631,0,22.869,10.239,22.869,22.87c0,12.633-10.237,22.862-22.869,22.862
	s-22.869-10.229-22.869-22.862C357.28,472.01,367.517,461.771,380.148,461.771z"/>
<path fill="#B0E0F7" d="M425.758,461.771c17.242,0,31.218,13.978,31.218,31.215c0,17.248-13.977,31.229-31.218,31.229
	c-17.242,0-31.219-13.98-31.219-31.229C394.539,475.749,408.516,461.771,425.758,461.771z"/>
<path fill="#B0E0F7" d="M477.147,422.457c29.022,0,52.556,23.527,52.556,52.549c0,29.023-23.533,52.547-52.556,52.547
	c-29.019,0-52.547-23.523-52.547-52.547C424.601,445.984,448.128,422.457,477.147,422.457z"/>
<circle fill="#B0E0F7" cx="553.079" cy="482.583" r="27.235"/>
<path fill="#01567B" d="M431.648,464.504l7.229,22.718h0.275l7.243-22.718h7.009l-10.308,29.905h-8.148l-10.322-29.905H431.648z
	 M467.149,494.409h-10.598v-29.905h10.687c3.01,0,5.598,0.6,7.766,1.795c2.168,1.187,3.847,2.896,5.014,5.12
	c1.178,2.234,1.762,4.897,1.762,8.009c0,3.112-0.584,5.785-1.762,8.027c-1.167,2.233-2.854,3.958-5.042,5.154
	C472.798,493.806,470.19,494.409,467.149,494.409z M462.873,488.983h4.015c1.865,0,3.438-0.325,4.718-0.99
	c1.28-0.673,2.242-1.706,2.888-3.106c0.653-1.412,0.977-3.234,0.977-5.458c0-2.215-0.323-4.023-0.977-5.417
	c-0.646-1.4-1.603-2.438-2.874-3.102c-1.279-0.662-2.848-0.99-4.718-0.99h-4.029V488.983z M502.228,473.107
	c-0.112-1.177-0.612-2.094-1.5-2.748c-0.888-0.653-2.09-0.977-3.603-0.977c-1.038,0-1.912,0.142-2.621,0.438
	c-0.711,0.281-1.253,0.678-1.636,1.184c-0.365,0.505-0.552,1.075-0.552,1.719c-0.019,0.533,0.089,1.002,0.332,1.402
	c0.262,0.402,0.603,0.743,1.042,1.033c0.439,0.291,0.944,0.538,1.514,0.752c0.579,0.195,1.187,0.374,1.842,0.523l2.691,0.646
	c1.298,0.29,2.495,0.672,3.588,1.167c1.094,0.486,2.037,1.08,2.831,1.79c0.795,0.71,1.417,1.552,1.855,2.515
	c0.449,0.963,0.678,2.069,0.688,3.313c-0.01,1.832-0.478,3.421-1.402,4.756c-0.916,1.338-2.243,2.377-3.972,3.117
	c-1.72,0.728-3.799,1.088-6.237,1.088c-2.411,0-4.515-0.364-6.31-1.102c-1.775-0.748-3.167-1.836-4.167-3.285
	c-1-1.468-1.519-3.266-1.565-5.424h6.116c0.065,1.009,0.36,1.84,0.865,2.513c0.513,0.663,1.2,1.163,2.061,1.509
	c0.859,0.327,1.835,0.496,2.93,0.496c1.074,0,2.005-0.159,2.789-0.467c0.795-0.318,1.415-0.743,1.855-1.305
	c0.438-0.551,0.659-1.192,0.659-1.91c0-0.673-0.202-1.233-0.604-1.692c-0.394-0.457-0.962-0.85-1.72-1.169
	c-0.747-0.326-1.668-0.616-2.761-0.877l-3.258-0.813c-2.522-0.616-4.508-1.573-5.967-2.884c-1.468-1.298-2.19-3.06-2.182-5.266
	c-0.009-1.813,0.472-3.396,1.453-4.744c0.981-1.353,2.322-2.41,4.042-3.17c1.71-0.757,3.653-1.141,5.841-1.141
	c2.214,0,4.148,0.384,5.804,1.141c1.672,0.76,2.962,1.817,3.887,3.17c0.926,1.349,1.401,2.918,1.43,4.703H502.228z"/>
</svg>
